<svg version="1" xmlns="http://www.w3.org/2000/svg" width="101.668" height="83.984" viewBox="42.185 0 101.668 83.984"><path fill="#23A9E1" d="M42.185 0l50.58 59.054L143.854 0"/><path fill="#491213" d="M93.104 0h-50.92v22.463l50.583 61.52.338-.423 50.748-60.394V0h-50.75zm0 57.05l-.338.41L45.893 1.776h94.418L93.105 57.05z"/><path fill="#491213" d="M92.766 57.46l.338-.41 27.576-32.287c-6.912.95-11.863 6.076-18.604 4.955-3.396-.563-3.498-2.514-4.47-4.455-.745-1.493-1.937-1.303-3.485-1.91-1.442-.564-2.276-1.738-5.16-1.06-2.53.59-2.81 4.517-5.954 4.292-1.688-.12-1.81-2.498-4.244-5.54-6.3-7.57-12.157-6.522-16.245.476l30.25 35.94z"/><path fill="#FFF" d="M65.464 32.248c.513.618.892 1.284.806 2.116-.06.58-.937 1.55-.27 1.847.747-.943 1.495-1.89 2.24-2.833-.6-.15-5.364-5.85-5.44-6.473l-3.16 1.734c.165.66 1.296.005 1.855.046.828.06 1.424.56 1.953 1.15-1.73 1.45-5.932 5.02-6.375 5.09-.227.038-1.09-.6-1.102-.054-.006.262.854 1.014 1.016 1.21.743.884 1.485 1.77 2.23 2.65.618-.28-.11-.73.204-1.24.235-.375 4.904-4.266 6.044-5.242zm-5.272-6.978c.442-.096.623.433.957-.057-.815-.974-1.634-1.945-2.448-2.918-.372-.44-.84-.916-.707.02.09.63-6.113 5.663-6.493 5.818-.48.197-.758-.416-1.108.098.73.87 1.46 1.74 2.192 2.608.246.293.478.612.747.883.34.34.208-.67.225-.585-.092-.512.526-.947.854-1.228 1.544-1.36 5.397-4.588 5.78-4.638zm-8.772-.918c-1.768.523-3.65-.164-4.207-2.042-.543-1.835.614-3.757 2.07-4.802 1.44-1.03 3.59-.97 4.374.838.346.8.157 1.707-.095 2.503-.16.505-.598 1 .057 1.287.858-1.096 1.72-2.19 2.58-3.285-1.056-.633-1.52-1.684-2.3-2.596-.883-1.07-2.064-2.078-3.482-2.283-2.87-.406-5.574 2.556-5.795 5.244-.137 1.457.374 2.85 1.246 4.002.75.993 1.866 1.622 2.435 2.753.262.095 2.704-1.033 3.285-1.256-.052-.11-.09-.275-.17-.365-.76.225 0 0 0 0zm39.3 36.408c-1.15-.77-4.024-4.69-4.573-5.34-.107-.132-.22-.263-.328-.394-.013-.016-.284.225-.247.19-.174.145.135.573-.053.864-.793 1.238-5.76 4.98-6.017 5.162-.555.385-1.164-.158-1.487.314.72.855 2.778 3.543 3.02 3.582.48.078.146-.814.21-1 .124-.37 2.634-2.445 3.55-3.21.336-.282.688.425.888.722.327.484.475 1 .3 1.568-.118.37-.718.92-.25 1.174.618-.723 2.36-2.754 2.61-3.05.254-.292-.564-.036-.468-.085-.37.19-.72.234-1.063-.03-.097-.067-1.088-1.08-.99-1.165.432-.36.96-.963 1.518-1.1.864-.213 1.583 1.516 1.71 2.13.12.577.104 1.185-.075 1.75-.123.386-.486.696.018.93.713-.974 1.424-1.944 2.133-2.92a.673.673 0 0 1-.405-.093c-.127-.085.14.07 0 0zm-10.224-4.132c2.205-1.855 2.482-5.053.77-7.338-1.866-2.49-5.37-3.097-7.805-1.052-2.202 1.853-2.486 5.046-.757 7.324 1.99 2.62 5.2 2.918 7.793 1.066 1.157-.974-.1.07 0 0zm-.465-4.752c-.645 1.51-2.2 3.062-3.73 3.666-1.818.715-3.1-.826-2.36-2.553.65-1.517 2.204-3.058 3.736-3.667 1.852-.733 3.066.846 2.355 2.553-.38.89.072-.17 0 0zm-5.979-9.856c.476.063.927.552 1.27.044-.74-.88-1.483-1.76-2.23-2.638-.595.27.05.55-.193.972-.245.426-2.56.78-3.177.89.225-.644.896-2.615 1.157-2.835.543-.444.884.433 1.283-.14l-2.744-3.254c-.312-.367-.56-1.03-.98-.68.04-.032.006 1.472-.088 1.73-.086.235-.937 3.64-1.927 4.472-.493.414-2.237 1.934-2.702 2.096-.54.188-.824-.598-1.22-.037l2.49 2.958c.125.148.603.863.768.893.522.097.06-.892.114-1.085.15-.43 2.5-2.72 3.496-2.857 1.462-.208 3.2-.706 4.682-.527.34.043-.35-.042 0 0zm37.338 10.43c.19.647.3 1.33.216 2.01-.107.872-.98 2.923-2.174 2.34-1.168-.575-2.193-1.73-3.188-2.554.803-.936 1.508-1.748 2.854-1.295.37.124.688-.034.3-.26-.405-.235-3.114-1.966-3.262-1.8-.27.31.527.867.222 1.473-.23.447-.61.834-.933 1.22-.72-.608-1.924-1.253-1.057-2.257.54-.66 1.25-1.172 2.098-1.342.564-.113 1.84.39 2.007-.225-1.09-.522-2.173-1.046-3.26-1.565.178.798-3.35 4.523-4.13 5.462-.112.14-.658.61-.664.8-.01.427.62.095.655.083.486-.182 6.816 5.107 6.973 5.47.1.282-.22.575-.028.73-.01-.01.23.218.254.187.39-.47 4.52-5.977 5.373-6.217-.793-1.215-1.588-2.432-2.367-3.652-.59.258-.02.95.11 1.39zm-6.16 6.702c-2.077-1.34-5.598 1.28-6.126 1.53-1.04.49-1.79-.542-1.25-1.5.47-.83 1.393-1.235 2.31-1.29.276-.018 1.352.197 1.46.025.13-.203.228-.223.04-.348-.853-.58-1.71-1.155-2.564-1.733-.177 1.057-1.386 1.73-2.076 2.44-.822.854-1.52 1.93-1.52 3.155 0 1.135.678 2.143 1.676 2.66 1.137.592 2.317.117 3.323-.51.627-.393 1.254-.857 1.924-1.172.996-.467 2.306-.062 1.953 1.27-.28 1.074-1.352 2.062-2.403 2.34-.617.164-1.27.11-1.873-.09-.433-.14-.992-.734-1.23-.11 1.16.847 2.32 1.69 3.48 2.536.105-.76.523-1.09 1.087-1.562.736-.646 1.44-1.318 1.995-2.13 1.158-1.692 1.538-4.06-.206-5.512z"/><path fill="#FFF" d="M105.23 59.152c.925.598-.59-.494 0 0zm29.232-37.314c-.007.004-.007.004 0 0z"/><path fill="#FFF" d="M141.92 19.63c-.73.728-8.42-2.343-8.982-2.766-.29-.116-.3-1.32-.705-.833-.402.49-.81.978-1.215 1.464-.418.506-.838 1.01-1.256 1.514-.26.313-.537.457-.04.72.84-.42 5.42 7.346 5.01 8.46-.727.377-6.915-5.057-7.08-5.414-.054-.146.27-1.02-.212-.945-.23.035-.744.895-.89 1.07-.297.358-.592.716-.89 1.073.333.484.517-.02.96.042.383.077 1.844 1.33 2.24 1.663-.726.027-2.687.132-2.935.113-.903.113-.422-.66-1.016-.93-.76.922-1.52 1.843-2.278 2.765-.44.535-.885 1.07-1.325 1.606-.054.066-.047.033.05.113.33.272.105.168.568.006.507-.18 6.56 4.93 6.775 5.188.377.45-.154.976.412 1.22.6-.727 1.197-1.456 1.797-2.183.09-.11.14-.1.02-.197-.43-.354-.478.21-1.002.153-.533-.088-4.396-3.367-5.896-4.61 1.82-.066 7.29-.27 8.197-.303.3-.01 1.14.896 1.066 1.216-.08.38-.463.56.056.795.48-.576.983-1.15 1.455-1.734l.23-.282a.747.747 0 0 0 .208-.265l.168-.21c.426-.486 1.8-2.007 1.635-2.15-.46-.4-.684.465-1.297-.055-.347-.25-1.222-1.788-1.44-2.162-.266-.45.605-.897.962-1.12.776-.48 3.248-1.182 3.48.35.042.258-.27.55-.083.703.044.037.204.242.27.163.164-.196 2.36-2.843 3.3-3.97-.093-.08-.203-.222-.32-.267zm-7.374 2.154c.077-.05.153-.097 0 0l-.084.054c.015-.008.047-.03.082-.05a5.67 5.67 0 0 0-.96.76l-1.562-2.693c1.178.49 2.354.985 3.524 1.48-.354.1-.69.253-1 .45zM124.8 32.996c-2.375-1.98-5.63-1.404-7.586.83-1.9 2.313-1.71 5.665.605 7.616 2.34 1.926 5.67 1.438 7.57-.847 1.9-2.302 1.77-5.667-.59-7.6zm-.28 6.613c-.02.02-.023.024-.025.024-1.23 1.293-3.356.098-4.506-.73-1.147-.828-3.11-2.568-1.856-4.104 1.058-1.287 3.125-.23 4.19.48 1.2.805 3.413 2.598 2.276 4.217.073-.09.127-.144-.08.112z"/><path fill="#FFF" d="M124.8 32.996c1.173.96-.252-.212 0 0zm-.308 6.641l.025-.026c.028-.036.057-.072.08-.11-.05.062-.108.137-.105.137zm-6.284 2.483c.11.093.273.224-.062-.058-2.836-2.127-6.193-1.504-8.402 1.156a2785.84 2785.84 0 0 0-2.96 3.566c.35.512.763-.117 1.272.176.436.25 6.243 5.1 6.338 5.365.164.46-.254.55.145.875.17.145 4.536-5.244 4.936-6.19.688-1.752.138-3.676-1.268-4.89zm-1.317 6.753c-.24.297-.042.055-.663.65-.308.293-6.438-4.675-6.19-4.943.833-.918 2.565-1.557 3.575-1.3 2.188.562 5.212 3.263 3.28 5.593z"/><path fill="#491213" d="M92.765 57.477l.34-.41L120.68 24.78c-6.913.95-11.864 6.077-18.604 4.956-3.396-.564-3.498-2.514-4.47-4.456-.746-1.493-1.937-1.303-3.486-1.91-1.442-.565-2.277-1.738-5.162-1.06-2.528.592-2.808 4.517-5.952 4.292-1.69-.12-1.812-2.497-4.244-5.54-6.302-7.57-12.158-6.522-16.247.476l30.25 35.94z"/><path fill="#23A9E1" d="M88.745 70.916l4.02-6.5 4.004 6.5-4.005 6.514"/><path fill="#FFF" d="M65.464 32.265c.513.618.89 1.284.806 2.116-.06.58-.936 1.55-.27 1.847l2.242-2.834c-.603-.15-5.365-5.848-5.442-6.472-1.053.58-2.106 1.157-3.16 1.735.165.66 1.295.005 1.855.046.828.06 1.425.56 1.953 1.153-1.73 1.45-5.932 5.017-6.374 5.09-.227.036-1.09-.6-1.102-.056-.006.262.853 1.014 1.015 1.21.743.884 1.485 1.77 2.23 2.653.618-.282-.11-.732.204-1.243.234-.374 4.903-4.267 6.044-5.242zm-5.274-6.98c.444-.095.625.434.96-.056-.816-.974-1.634-1.946-2.45-2.918-.37-.442-.84-.916-.705.018.09.63-6.113 5.664-6.493 5.82-.48.197-.758-.417-1.11.097.732.87 1.462 1.74 2.194 2.608.246.292.477.612.747.882.34.34.208-.672.224-.585-.09-.513.527-.948.855-1.228 1.544-1.36 5.397-4.588 5.78-4.64zm-8.77-.917c-1.768.523-3.65-.164-4.207-2.042-.543-1.835.614-3.757 2.07-4.8 1.44-1.033 3.59-.97 4.374.837.346.8.157 1.706-.095 2.502-.16.506-.597 1 .057 1.29.858-1.097 1.72-2.19 2.58-3.287-1.056-.633-1.52-1.683-2.3-2.595-.883-1.07-2.064-2.08-3.482-2.284-2.87-.407-5.574 2.555-5.795 5.244-.137 1.457.374 2.848 1.246 4 .75.995 1.866 1.624 2.434 2.755.262.094 2.705-1.034 3.286-1.256-.052-.11-.09-.275-.17-.366-.76.226 0 0 0 0zm39.3 36.409c-1.15-.768-4.025-4.69-4.573-5.34-.107-.13-.22-.262-.33-.393-.01-.015-.282.225-.245.19-.173.146.135.573-.052.864-.793 1.24-5.758 4.982-6.016 5.163-.556.385-1.164-.158-1.49.316.72.854 2.78 3.543 3.02 3.582.48.078.148-.814.212-1 .123-.37 2.633-2.445 3.55-3.21.335-.282.687.425.887.722.327.484.475 1 .298 1.568-.115.37-.716.92-.25 1.174.62-.723 2.362-2.754 2.614-3.05.252-.292-.566-.036-.47-.086-.37.19-.718.235-1.062-.028-.096-.07-1.09-1.082-.99-1.166.432-.36.96-.963 1.518-1.1.862-.213 1.582 1.516 1.71 2.13.12.577.103 1.185-.077 1.75-.124.386-.487.695.018.93.714-.975 1.424-1.946 2.133-2.92a.703.703 0 0 1-.403-.095c-.127-.085.14.07 0 0zm-10.224-4.131c2.205-1.855 2.48-5.053.77-7.34-1.868-2.488-5.372-3.095-7.805-1.05-2.203 1.853-2.488 5.046-.757 7.324 1.99 2.62 5.2 2.918 7.793 1.066 1.156-.975-.1.07 0 0zm-.465-4.753c-.646 1.51-2.2 3.063-3.73 3.667-1.82.715-3.1-.827-2.36-2.553.65-1.516 2.202-3.057 3.736-3.666 1.852-.734 3.066.847 2.355 2.553-.38.89.072-.17 0 0zm-5.979-9.856c.475.06.926.55 1.27.042-.742-.88-1.484-1.76-2.23-2.638-.594.27.048.55-.193.97-.245.428-2.56.782-3.177.89.224-.643.896-2.614 1.157-2.834.544-.445.883.432 1.283-.14l-2.743-3.254c-.31-.366-.56-1.028-.98-.68.038-.03.006 1.472-.09 1.733-.085.236-.935 3.638-1.925 4.47-.493.414-2.237 1.934-2.702 2.097-.54.19-.825-.598-1.22-.038l2.49 2.957c.126.148.603.863.768.893.522.094.06-.893.114-1.086.15-.43 2.5-2.72 3.497-2.86 1.462-.204 3.2-.7 4.682-.523.34.042-.352-.043 0 0z"/><path fill="#DC6243" d="M67.792 22.874c-4.043-.167-2.352-3.954.395-4.808 2.61-.813 8.09 1.717 9.843 3.398-2.782.855-6.386.732-9.446.874-.227-3.12-.96-2.032-.792.536zm1.015 4.85c-2.04-1.58-1.396-5.266 1.763-4.146 4.005 2.084-.856 3.24-1.763 4.146 0 0 .042-.042 0 0zm8.488 7.699c-8.62-.07-2.792-13.322.14-12.52 3.374 1.072 2.996 12.62-.14 12.52zm6.105-4.329c-.84 2.5-2.36 2.968-2.19-.07.193-3.503 2.48-2.662 4.93-4.004 2.04-1.12 3.14-5.214 6.64-2.765 1.563 1.093 3.354.18 3.853 1.833-.025-.084-4.545 10.308-2.03 10.308-4.962 0-2.773-5.922-.875-9.9-1.847.886-4.842 6.69-2.382 7.644-1.28 1.686-5.194 3.945-7.234 2.298-1.554-1.25-.694-3.325-.71-5.344zm4.105 9.603c-3.49 1.046-8.122-1.207-2.51-2.34 3.483-.704 7.187.778 2.51 2.34.14-.042-.128.043 0 0zm4.37-.141c-.736-1.658.562-3.635 2.68-2.2 1.847 1.253-.85 3.107-2.68 2.2zm-2.945 4.668c-2.412-.747-10.538-.56-5.22-2.764 1.64-.68 10.155.098 5.22 2.764zm3.214-.354c-.007-.96-.512-2.678 1.354-1.945 2.235.88-1.354 2.65-1.354 1.946 0 0 0-.168 0 0zm7.219 3.668c-1.437-1.227-2.89-1.295-4.23 0-1.794-3.293-8.317-2.19-11.365-2.65 1.638 4.028 14.864 4.78 15.595 2.65zm-1.903 2.424c-3.15-.146-6.67-.563-9.646.084 1.86.466 6.396 1.795 2.172 2.918 1.516 2.168 3.974 2.03 5.584.127-.654-.32-1.01-.718-1.552-1.056 1.672-.303 3.234-1.267 3.442-2.072zm3.596-3.877c-5.288-3.112-3.95-5.427.354-7.586 2.254-1.132 7.323-5.21 9.446-3.85-3.267 3.81-6.534 7.623-9.8 11.435z"/><path fill="#F49774" d="M97.29 39.81c-4.478-4.602 6.69-4.18 8.487-5.797 1.312.437 10.77-8.283 13.07-7.74-1.654 1.94-5.22 8.135-7.773 8.135-1.965 0-3.95-.292-5.473 1.107-2.222 2.048-5.906 3.09-8.31 4.294z"/><path fill="#F4B1A4" d="M98.758 34.183c-2.453 1.32-4.772-3.907-.537-3.398 2.814.338 5.663-.237 8.35.226-1.928 2.292-4.707 3.554-7.812 3.173z"/><g fill="#FFF"><path d="M111.39 52.466c.19.648.3 1.332.215 2.01-.106.872-.98 2.924-2.173 2.34-1.17-.574-2.194-1.73-3.188-2.553.802-.936 1.507-1.75 2.854-1.295.37.123.688-.036.3-.262-.405-.234-3.114-1.965-3.262-1.8-.27.312.528.868.22 1.474-.228.447-.608.834-.93 1.22-.72-.608-1.924-1.254-1.058-2.257.542-.66 1.25-1.172 2.098-1.342.565-.113 1.84.39 2.006-.224-1.087-.52-2.172-1.044-3.258-1.565.177.8-3.35 4.526-4.13 5.464-.114.138-.66.61-.665.798-.01.43.62.097.656.084.485-.18 6.815 5.108 6.973 5.47.1.282-.222.575-.03.732-.01-.01.23.217.253.185.392-.468 4.522-5.976 5.374-6.217-.794-1.215-1.588-2.43-2.368-3.65-.59.257-.02.948.11 1.39zm-6.16 6.704c-2.078-1.34-5.597 1.278-6.126 1.53-1.04.49-1.79-.543-1.25-1.502.468-.83 1.393-1.234 2.31-1.29.276-.017 1.35.198 1.46.026.13-.202.227-.22.04-.346L99.1 55.855c-.176 1.056-1.385 1.728-2.076 2.44-.822.854-1.52 1.93-1.52 3.156 0 1.136.68 2.144 1.677 2.66 1.135.593 2.316.117 3.323-.51.627-.392 1.254-.856 1.924-1.17.996-.468 2.304-.063 1.953 1.27-.282 1.072-1.352 2.06-2.405 2.34-.616.163-1.27.108-1.872-.09-.432-.143-.993-.735-1.23-.112l3.482 2.537c.104-.76.522-1.09 1.086-1.563.736-.646 1.44-1.32 1.995-2.13 1.158-1.692 1.537-4.06-.206-5.513z"/><path d="M105.23 59.17c.924.597-.592-.495 0 0zm29.232-37.315c-.007.004-.007.004 0 0z"/><path d="M141.92 19.645c-.73.73-8.42-2.34-8.982-2.764-.29-.115-.3-1.32-.705-.832-.403.488-.81.976-1.216 1.463-.418.506-.837 1.01-1.256 1.514-.26.314-.536.458-.037.72.837-.42 5.417 7.346 5.008 8.46-.724.377-6.914-5.056-7.08-5.414-.052-.146.273-1.02-.21-.945-.23.036-.744.896-.89 1.072-.297.357-.592.715-.89 1.072.333.484.518-.022.96.04.383.078 1.844 1.332 2.24 1.665-.725.027-2.685.13-2.934.113-.903.112-.422-.663-1.015-.93-.76.92-1.52 1.842-2.276 2.763-.44.537-.885 1.073-1.326 1.608-.054.065-.047.032.05.112.33.273.104.168.568.006.506-.177 6.56 4.93 6.776 5.19.377.45-.154.975.41 1.22.6-.727 1.198-1.456 1.8-2.183.09-.11.14-.1.02-.198-.427-.353-.476.212-1.002.154-.533-.09-4.395-3.37-5.895-4.61 1.82-.07 7.29-.272 8.198-.305.3-.01 1.14.896 1.068 1.216-.08.38-.462.56.055.795.48-.575.985-1.15 1.456-1.734l.23-.28a.777.777 0 0 0 .21-.266l.167-.21c.425-.486 1.8-2.007 1.635-2.15-.46-.4-.685.465-1.298-.055-.348-.25-1.223-1.79-1.443-2.163-.263-.45.61-.897.965-1.12.776-.48 3.247-1.182 3.482.35.04.257-.27.55-.084.703.044.037.204.242.27.163.163-.197 2.36-2.843 3.3-3.97-.097-.08-.206-.223-.323-.268zm-7.374 2.156c.077-.048.153-.097 0 0l-.084.055.082-.052c-.345.22-.668.473-.958.76-.52-.896-1.044-1.794-1.564-2.692 1.178.492 2.353.986 3.524 1.482a3.72 3.72 0 0 0-1 .45zM124.8 33.012c-2.374-1.98-5.63-1.404-7.585.832-1.903 2.312-1.712 5.663.604 7.615 2.34 1.925 5.67 1.437 7.57-.847 1.9-2.303 1.77-5.668-.59-7.6zm-.28 6.614c-.02.02-.024.027-.025.027-1.232 1.292-3.358.096-4.506-.73-1.147-.83-3.11-2.57-1.856-4.105 1.056-1.287 3.124-.23 4.19.482 1.2.803 3.412 2.596 2.276 4.216.074-.09.126-.148-.08.11z"/><path d="M124.8 33.012c1.172.96-.252-.21 0 0zm-.308 6.641l.025-.027a1.09 1.09 0 0 0 .08-.11c-.048.06-.11.137-.105.137zm-6.282 2.483c.11.094.27.224-.064-.057-2.835-2.128-6.193-1.505-8.4 1.156a1801.7 1801.7 0 0 0-2.962 3.567c.35.512.763-.118 1.272.176.437.25 6.244 5.1 6.34 5.365.163.458-.256.548.144.875.172.143 4.536-5.245 4.935-6.19.69-1.756.14-3.68-1.266-4.894zm-1.32 6.754c-.24.296-.043.054-.664.65-.306.293-6.438-4.675-6.19-4.944.834-.918 2.565-1.556 3.575-1.297 2.19.56 5.214 3.26 3.28 5.59z"/></g></svg>