<svg version="1" xmlns="http://www.w3.org/2000/svg" width="101.668" height="83.985" viewBox="42.184 0.016 101.668 83.985"><path fill="#23A9E1" d="M43.242.72l49.523 58.35L142.09 1.075"/><path fill="#FFF" d="M122.023 17.332l-15.187.084c6-6.93 8.697-6.19 15.187-.084zM80.85 22.69h26.68c-1.985-1.233-6.71-7.06-9.31-4.893-.21.178-7.504-8.848-12.295-4.5-4.18 3.8-6.12-.497-10.857 2.512-5.4 3.57 3.12 5.674 5.78 6.88z"/><path fill="#491213" d="M93.104.016h-50.92V22.48L92.764 84l.34-.423 50.748-60.395V.016H93.104zm0 57.052l-.34.41L45.893 1.792h94.42L93.103 57.068z"/><path fill="#491213" d="M92.765 57.477l.34-.41L120.68 24.78c-6.913.95-11.864 6.077-18.604 4.956-3.396-.564-3.498-2.514-4.47-4.456-.746-1.493-1.937-1.303-3.486-1.91-1.442-.565-2.277-1.738-5.162-1.06-2.528.592-2.808 4.517-5.952 4.292-1.69-.12-1.812-2.497-4.244-5.54-6.302-7.57-12.158-6.522-16.247.476l30.25 35.94z"/><path fill="#23A9E1" d="M88.745 70.916l4.02-6.5 4.004 6.5-4.005 6.514"/><path fill="#FFF" d="M65.464 32.265c.513.618.89 1.284.806 2.116-.06.58-.936 1.55-.27 1.847l2.242-2.834c-.603-.15-5.365-5.848-5.442-6.472-1.053.58-2.106 1.157-3.16 1.735.165.66 1.295.005 1.855.046.828.06 1.425.56 1.953 1.153-1.73 1.45-5.932 5.017-6.374 5.09-.227.036-1.09-.6-1.102-.056-.006.262.853 1.014 1.015 1.21.743.884 1.485 1.77 2.23 2.653.618-.282-.11-.732.204-1.243.234-.374 4.903-4.267 6.044-5.242zM60.19 25.285c.444-.095.625.434.96-.056-.816-.974-1.634-1.946-2.45-2.918-.37-.442-.84-.916-.705.018.09.63-6.113 5.664-6.493 5.82-.48.197-.758-.417-1.11.097.732.87 1.462 1.74 2.194 2.608.246.292.477.612.747.882.34.34.208-.672.224-.585-.09-.513.527-.948.855-1.228 1.544-1.36 5.397-4.588 5.78-4.64zM51.42 24.368c-1.768.523-3.65-.164-4.207-2.042-.543-1.835.614-3.757 2.07-4.8 1.44-1.033 3.59-.97 4.374.837.346.8.157 1.706-.095 2.502-.16.506-.597 1 .057 1.29.858-1.097 1.72-2.19 2.58-3.287-1.056-.633-1.52-1.683-2.3-2.595-.883-1.07-2.064-2.08-3.482-2.284-2.87-.407-5.574 2.555-5.795 5.244-.137 1.457.374 2.848 1.246 4 .75.995 1.866 1.624 2.434 2.755.262.094 2.705-1.034 3.286-1.256-.052-.11-.09-.275-.17-.366-.76.226 0 0 0 0zM90.72 60.777c-1.15-.768-4.025-4.69-4.573-5.34-.107-.13-.22-.262-.33-.393-.01-.015-.282.225-.245.19-.173.146.135.573-.052.864-.793 1.24-5.758 4.982-6.016 5.163-.556.385-1.164-.158-1.49.316.72.854 2.78 3.543 3.02 3.582.48.078.148-.814.212-1 .123-.37 2.633-2.445 3.55-3.21.335-.282.687.425.887.722.327.484.475 1 .298 1.568-.115.37-.716.92-.25 1.174.62-.723 2.362-2.754 2.614-3.05.252-.292-.566-.036-.47-.086-.37.19-.718.235-1.062-.028-.096-.07-1.09-1.082-.99-1.166.432-.36.96-.963 1.518-1.1.862-.213 1.582 1.516 1.71 2.13.12.577.103 1.185-.077 1.75-.124.386-.487.695.018.93.714-.975 1.424-1.946 2.133-2.92-.15.008-.28-.024-.403-.095-.127-.085.14.07 0 0zM80.496 56.646c2.205-1.855 2.48-5.053.77-7.34-1.868-2.488-5.372-3.095-7.805-1.05-2.203 1.853-2.488 5.046-.757 7.324 1.99 2.62 5.2 2.918 7.793 1.066 1.156-.975-.1.07 0 0zm-.465-4.753c-.646 1.51-2.2 3.063-3.73 3.667-1.82.715-3.1-.827-2.36-2.553.65-1.516 2.202-3.057 3.736-3.666 1.852-.734 3.066.847 2.355 2.553-.38.89.072-.17 0 0zM74.052 42.037c.475.06.926.55 1.27.042-.742-.88-1.484-1.76-2.23-2.638-.594.27.048.55-.193.97-.245.428-2.56.782-3.177.89.224-.643.896-2.614 1.157-2.834.544-.445.883.432 1.283-.14l-2.743-3.254c-.31-.366-.56-1.028-.98-.68.038-.03.006 1.472-.09 1.733-.085.236-.935 3.638-1.925 4.47-.493.414-2.237 1.934-2.702 2.097-.54.19-.825-.598-1.22-.038l2.49 2.957c.126.148.603.863.768.893.522.094.06-.893.114-1.086.15-.43 2.5-2.72 3.497-2.86 1.462-.204 3.2-.7 4.682-.523.34.042-.352-.043 0 0z"/><path fill="#DC6243" d="M67.792 22.874c-4.043-.167-2.352-3.954.395-4.808 2.61-.813 8.09 1.717 9.843 3.398-2.782.855-6.386.732-9.446.874-.227-3.12-.96-2.032-.792.536zM68.807 27.724c-2.04-1.58-1.396-5.266 1.763-4.146 4.005 2.084-.856 3.24-1.763 4.146 0 0 .042-.042 0 0zM77.295 35.423c-8.62-.07-2.792-13.322.14-12.52 3.374 1.072 2.996 12.62-.14 12.52zM83.4 31.094c-.84 2.5-2.36 2.968-2.19-.07.193-3.503 2.48-2.662 4.93-4.004 2.04-1.12 3.14-5.214 6.64-2.765 1.563 1.093 3.354.18 3.853 1.833-.025-.084-4.545 10.308-2.03 10.308-4.962 0-2.773-5.922-.875-9.9-1.847.886-4.842 6.69-2.382 7.644-1.28 1.686-5.194 3.945-7.234 2.298-1.554-1.25-.694-3.325-.71-5.344zM87.505 40.697c-3.49 1.046-8.122-1.207-2.51-2.34 3.483-.704 7.187.778 2.51 2.34.14-.042-.128.043 0 0zM91.875 40.556c-.736-1.658.562-3.635 2.68-2.2 1.847 1.253-.85 3.107-2.68 2.2zM88.93 45.224c-2.412-.747-10.538-.56-5.22-2.764 1.64-.68 10.155.098 5.22 2.764zM92.144 44.87c-.007-.96-.512-2.678 1.354-1.945 2.235.88-1.354 2.65-1.354 1.946 0 0 0-.168 0 0zM99.363 48.538c-1.437-1.227-2.89-1.295-4.23 0-1.794-3.293-8.317-2.19-11.365-2.65 1.638 4.028 14.864 4.78 15.595 2.65z"/><g><path fill="#DC6243" d="M97.46 50.962c-3.15-.146-6.67-.563-9.646.084 1.86.466 6.396 1.795 2.172 2.918 1.516 2.168 3.974 2.03 5.584.127-.654-.32-1.01-.718-1.552-1.056 1.672-.303 3.234-1.267 3.442-2.072z"/></g><g><path fill="#DC6243" d="M101.056 47.085c-5.288-3.112-3.95-5.427.354-7.586 2.254-1.132 7.323-5.21 9.446-3.85-3.267 3.81-6.534 7.623-9.8 11.435z"/></g><g><path fill="#F49774" d="M97.29 39.81c-4.478-4.602 6.69-4.18 8.487-5.797 1.312.437 10.77-8.283 13.07-7.74-1.654 1.94-5.22 8.135-7.773 8.135-1.965 0-3.95-.292-5.473 1.107-2.222 2.048-5.906 3.09-8.31 4.294z"/></g><g><path fill="#F4B1A4" d="M98.758 34.183c-2.453 1.32-4.772-3.907-.537-3.398 2.814.338 5.663-.237 8.35.226-1.928 2.292-4.707 3.554-7.812 3.173z"/></g><g><path fill="#FFF" d="M111.39 52.466c.19.648.3 1.332.215 2.01-.106.872-.98 2.924-2.173 2.34-1.17-.574-2.194-1.73-3.188-2.553.802-.936 1.507-1.75 2.854-1.295.37.123.688-.036.3-.262-.405-.234-3.114-1.965-3.262-1.8-.27.312.528.868.22 1.474-.228.447-.608.834-.93 1.22-.72-.608-1.924-1.254-1.058-2.257.542-.66 1.25-1.172 2.098-1.342.565-.113 1.84.39 2.006-.224-1.087-.52-2.172-1.044-3.258-1.565.177.8-3.35 4.526-4.13 5.464-.114.138-.66.61-.665.798-.01.43.62.097.656.084.485-.18 6.815 5.108 6.973 5.47.1.282-.222.575-.03.732-.01-.01.23.217.253.185.392-.468 4.522-5.976 5.374-6.217-.794-1.215-1.588-2.43-2.368-3.65-.59.257-.02.948.11 1.39zM105.23 59.17c-2.078-1.34-5.597 1.278-6.126 1.53-1.04.49-1.79-.543-1.25-1.502.468-.83 1.393-1.234 2.31-1.29.276-.017 1.35.198 1.46.026.13-.202.227-.22.04-.346L99.1 55.855c-.176 1.056-1.385 1.728-2.076 2.44-.822.854-1.52 1.93-1.52 3.156 0 1.136.68 2.144 1.677 2.66 1.135.593 2.316.117 3.323-.51.627-.392 1.254-.856 1.924-1.17.996-.468 2.304-.063 1.953 1.27-.282 1.072-1.352 2.06-2.405 2.34-.616.163-1.27.108-1.872-.09-.432-.143-.993-.735-1.23-.112l3.482 2.537c.104-.76.522-1.09 1.086-1.563.736-.646 1.44-1.32 1.995-2.13 1.158-1.692 1.537-4.06-.206-5.513z"/><path fill="#FFF" d="M105.23 59.17c.924.597-.592-.495 0 0zM134.462 21.855c-.007.004-.007.004 0 0z"/><path fill="#FFF" d="M141.92 19.645c-.73.73-8.42-2.34-8.982-2.764-.29-.115-.3-1.32-.705-.832-.403.488-.81.976-1.216 1.463-.418.506-.837 1.01-1.256 1.514-.26.314-.536.458-.037.72.837-.42 5.417 7.346 5.008 8.46-.724.377-6.914-5.056-7.08-5.414-.052-.146.273-1.02-.21-.945-.23.036-.744.896-.89 1.072-.297.357-.592.715-.89 1.072.333.484.518-.022.96.04.383.078 1.844 1.332 2.24 1.665-.725.027-2.685.13-2.934.113-.903.112-.422-.663-1.015-.93-.76.92-1.52 1.842-2.276 2.763-.44.537-.885 1.073-1.326 1.608-.054.065-.047.032.05.112.33.273.104.168.568.006.506-.177 6.56 4.93 6.776 5.19.377.45-.154.975.41 1.22.6-.727 1.198-1.456 1.8-2.183.09-.11.14-.1.02-.198-.427-.353-.476.212-1.002.154-.533-.09-4.395-3.37-5.895-4.61 1.82-.07 7.29-.272 8.198-.305.3-.01 1.14.896 1.068 1.216-.08.38-.462.56.055.795.48-.575.985-1.15 1.456-1.734l.23-.28c.075-.053.145-.146.21-.266l.167-.21c.425-.486 1.8-2.007 1.635-2.15-.46-.4-.685.465-1.298-.055-.348-.25-1.223-1.79-1.443-2.163-.263-.45.61-.897.965-1.12.776-.48 3.247-1.182 3.482.35.04.257-.27.55-.084.703.044.037.204.242.27.163.163-.197 2.36-2.843 3.3-3.97-.097-.08-.206-.223-.323-.268zm-7.374 2.156c.077-.048.153-.097 0 0l-.084.055.082-.052c-.345.22-.668.473-.958.76-.52-.896-1.044-1.794-1.564-2.692 1.178.492 2.353.986 3.524 1.482-.354.098-.69.253-1 .45zM124.8 33.012c-2.374-1.98-5.63-1.404-7.585.832-1.903 2.312-1.712 5.663.604 7.615 2.34 1.925 5.67 1.437 7.57-.847 1.9-2.303 1.77-5.668-.59-7.6zm-.28 6.614c-.02.02-.024.027-.025.027-1.232 1.292-3.358.096-4.506-.73-1.147-.83-3.11-2.57-1.856-4.105 1.056-1.287 3.124-.23 4.19.482 1.2.803 3.412 2.596 2.276 4.216.074-.09.126-.148-.08.11z"/><path fill="#FFF" d="M124.8 33.012c1.172.96-.252-.21 0 0zM124.492 39.653l.025-.027c.03-.037.057-.073.08-.11-.048.06-.11.137-.105.137zM118.21 42.136c.11.094.27.224-.064-.057-2.835-2.128-6.193-1.505-8.4 1.156-.99 1.19-1.978 2.378-2.962 3.567.35.512.763-.118 1.272.176.437.25 6.244 5.1 6.34 5.365.163.458-.256.548.144.875.172.143 4.536-5.245 4.935-6.19.69-1.756.14-3.68-1.266-4.894zm-1.32 6.754c-.24.296-.043.054-.664.65-.306.293-6.438-4.675-6.19-4.944.834-.918 2.565-1.556 3.575-1.297 2.19.56 5.214 3.26 3.28 5.59z"/></g></svg>