<svg xmlns="http://www.w3.org/2000/svg" style="display: none">
  <symbol viewBox="0 0 27 27" id="icon-map-marker">
    <circle fill="#FFF" cx="13.5" cy="13.5" r="13.5"/><circle fill="#81B3D3" cx="13.5" cy="13.5" r="8.361"/>
  </symbol>
  <symbol viewBox="0 0 22 21" id="like-icon">
    <path d="M12.383 3.646l-.637 2.93L11.22 9h8.68v2.058L17 18H8V8.03l.014-.016 4.37-4.368M2 10v8-8M13.2 0L6.6 6.6c-.4.3-.6.8-.6 1.4v10c0 1.1.9 2 2 2h9c.8 0 1.5-.5 1.8-1.2l3-7.1c.1-.2.1-.5.1-.7V9h.1c0-1.1-.9-2-2-2h-6.3l1-4.6v-.3c0-.4-.2-.8-.4-1.1l-1.1-1zM4 8H0v12h4V8zm18 1v.044V9z"/>
  </symbol>
  <symbol viewBox="0 0 16 20" id="replay-icon">
    <path d="M8 4V0L3 5l5 5V6c3.315 0 6 2.686 6 6s-2.685 6-6 6-6-2.686-6-6H0c0 4.42 3.58 8 8 8s8-3.58 8-8-3.58-8-8-8z"/>
  </symbol>
  <symbol viewBox="0 0 32 20" id="subtitles-icon">
    <path d="M29 0H3C1.35 0 0 1.35 0 3v14c0 1.65 1.35 3 3 3h26c1.65 0 3-1.35 3-3V3c0-1.65-1.35-3-3-3zM14.403 15.854c-.545.108-1.104.164-1.678.164-.694 0-1.354-.107-1.976-.323-.624-.214-1.173-.562-1.647-1.04s-.852-1.104-1.133-1.87c-.28-.765-.42-1.694-.42-2.785 0-1.134.158-2.085.472-2.85.315-.77.723-1.385 1.224-1.855.502-.468 1.062-.804 1.68-1.008.615-.204 1.232-.307 1.85-.307.66 0 1.22.045 1.68.134.456.087.834.192 1.132.313l-.448 1.92c-.254-.12-.555-.21-.902-.265C13.89 6.027 13.47 6 12.973 6c-.915 0-1.65.325-2.206.977-.558.65-.836 1.663-.836 3.03 0 .6.068 1.143.2 1.633.132.493.334.913.603 1.26.27.35.607.62 1.01.812.402.193.867.29 1.396.29.495 0 .914-.05 1.256-.148.342-.1.64-.227.893-.38l.462 1.84c-.354.25-.803.43-1.35.54zm8.698 0c-.544.108-1.104.164-1.677.164-.694 0-1.354-.107-1.976-.323-.623-.214-1.172-.562-1.646-1.04s-.85-1.104-1.132-1.87c-.28-.766-.42-1.694-.42-2.785 0-1.134.156-2.085.47-2.85.314-.77.723-1.385 1.223-1.855.503-.468 1.063-.804 1.68-1.008.617-.204 1.234-.307 1.852-.307.66 0 1.22.045 1.678.134.458.087.836.192 1.133.313l-.446 1.918c-.253-.12-.554-.21-.9-.265-.35-.053-.77-.08-1.267-.08-.915 0-1.65.325-2.206.977-.558.65-.836 1.663-.836 3.03 0 .6.067 1.143.2 1.633.13.493.333.913.602 1.26.27.35.606.62 1.01.812.4.193.867.29 1.395.29.497 0 .915-.05 1.257-.148.342-.1.64-.227.894-.38l.463 1.84c-.354.25-.804.43-1.35.54z"/>
  </symbol>
  <symbol viewBox="0 0 20 20" id="fullscreen-icon">
    <path d="M0 0v6h3V3h3V0H3M3 14H0v6h6v-3H3M17 0h-3v3h3v3h3V0M17 17h-3v3h6v-6h-3"/>
  </symbol>
  <symbol viewBox="0 0 18 14" id="twitter-icon">
    <path fill="#ffffff" fill-rule="evenodd" clip-rule="evenodd" d="M11.283.153c1.736-.484 3.074.264 3.685 1.15.694-.225 1.372-.47 2.072-.69-.004.84-.538 1.478-.883 1.728.704.166 1.343-.48 1.343-.48-.175.977-1.035 1.746-1.61 1.977-.24 6.592-3.273 10.956-10.383 10.823h-.46c-.422 0-4.29-.45-5.047-1.843 2.34.192 4.01-.412 4.835-1.15-.99-.293-2.76-.464-3.07-2.88.362.104.583.222 1.228.116C1.757 8.067.385 7.366.46 5.218c.295.32 1.1.523 1.382.46C1.117 5.445-.188 2.4.922.844c1.872 1.812 3.847 3.52 7.368 3.685.216-2.24 1.17-3.74 2.993-4.375z"/>
  </symbol>
  <symbol viewBox="0 0 9 18" id="facebook-icon">
    <path fill="#ffffff" d="M6.275 3.356h2.398V0H5.795C2.655.18 1.54 2.387 1.948 6.114H0v3.518h1.96v9.312h3.836V9.632h2.857V6.114H5.787c-.022-1.045-.037-2.405.488-2.758z"/>
  </symbol>
  <symbol viewBox="0 0 20 14" id="youtube-icon">
    <path fill="#ffffff" d="M17.145 0H2.835C1.275 0 0 1.275 0 2.835v8.345c0 1.56 1.275 2.835 2.835 2.835h14.31c1.56 0 2.835-1.275 2.835-2.835V2.835C19.98 1.275 18.704 0 17.145 0zM7.035 10.392v-6.77l6.77 3.385-6.77 3.385z"/>
  </symbol>
  <symbol viewBox="0 0 27 34" id="htmlacademy-icon">
    <path d="M13.62.017L13.472 0 0 1.412v24.66l13.473 8.018 13.43-7.99.042-.025V1.412L13.62.017zm11.4 12.11L13.494 5.334V5.23l-.088.05-.088-.056v.11L1.924 12.117v-8.97l11.548-1.213L25.02 3.147v8.98zm-11.615-5.34L24.923 13.5l-4.48 2.64-7.092-4.22-.013 1.414 5.904 3.513-.86.507-5.03-2.992-.013 1.415 3.827 2.275-.782.523-3.03-1.787-.015 1.413 1.853 1.092-1.8 1.08-11.356-6.75 11.37-6.835zm-11.48 8.34l11.41 6.79.017 1.045-7.942-4.728-.015 1.416 7.98 4.795.017 1.076-7.973-4.74-.014 1.415 8.02 4.822.047.025 8.143-4.872-.01-5.177 3.414-2.036v10.02L13.472 31.85 1.925 24.98v-9.853z"/>
  </symbol>
</svg>
