<svg version="1" xmlns="http://www.w3.org/2000/svg" width="32" height="20" viewBox="0 0 32 20"><path d="M29 0H3C1.35 0 0 1.35 0 3v14c0 1.65 1.35 3 3 3h26c1.65 0 3-1.35 3-3V3c0-1.65-1.35-3-3-3zM14.403 15.854a8.61 8.61 0 0 1-1.678.164 5.986 5.986 0 0 1-1.976-.323c-.624-.214-1.173-.562-1.647-1.04s-.852-1.104-1.133-1.87c-.28-.765-.42-1.694-.42-2.785 0-1.134.158-2.085.472-2.85.315-.77.723-1.385 1.224-1.855a4.526 4.526 0 0 1 1.68-1.008 5.848 5.848 0 0 1 1.85-.307c.66 0 1.22.045 1.68.134.456.087.834.192 1.132.313l-.448 1.92a3.332 3.332 0 0 0-.902-.265A8.23 8.23 0 0 0 12.973 6c-.915 0-1.65.325-2.206.977-.558.65-.836 1.663-.836 3.03 0 .6.068 1.143.2 1.633.132.493.334.913.603 1.26.27.35.607.62 1.01.812.402.193.867.29 1.396.29.495 0 .914-.05 1.256-.148.342-.1.64-.227.893-.38l.462 1.84c-.354.25-.803.43-1.35.54zm8.698 0a8.6 8.6 0 0 1-1.677.164 5.986 5.986 0 0 1-1.976-.323c-.623-.214-1.172-.562-1.646-1.04s-.85-1.104-1.132-1.87c-.28-.766-.42-1.694-.42-2.785 0-1.134.156-2.085.47-2.85.314-.77.723-1.385 1.223-1.855a4.541 4.541 0 0 1 1.68-1.008 5.87 5.87 0 0 1 1.852-.307c.66 0 1.22.045 1.678.134a6.05 6.05 0 0 1 1.133.313l-.446 1.918a3.317 3.317 0 0 0-.9-.265c-.35-.053-.77-.08-1.267-.08-.915 0-1.65.325-2.206.977-.558.65-.836 1.663-.836 3.03 0 .6.067 1.143.2 1.633.13.493.333.913.602 1.26.27.35.606.62 1.01.812.4.193.867.29 1.395.29.497 0 .915-.05 1.257-.148.342-.1.64-.227.894-.38l.463 1.84c-.354.25-.804.43-1.35.54z"/></svg>